<svg id="svg" version="1.1" xmlns="http://www.w3.org/2000/svg" xmlns:xlink="http://www.w3.org/1999/xlink" width="400" height="400" viewBox="0, 0, 400,400"><g id="svgg"><path id="path0" d="M182.860 67.042 C 182.562 67.378,182.399 67.732,182.495 67.829 C 182.592 67.926,182.998 67.644,183.398 67.202 C 183.797 66.761,183.961 66.407,183.762 66.415 C 183.563 66.424,183.157 66.705,182.860 67.042 M220.743 71.100 C 221.244 71.815,221.739 72.400,221.841 72.400 C 222.187 72.400,221.250 70.940,220.537 70.367 C 220.036 69.965,220.096 70.178,220.743 71.100 M232.031 86.508 C 232.304 87.108,232.680 87.600,232.864 87.600 C 233.453 87.600,233.226 86.948,232.367 86.170 C 231.535 85.417,231.534 85.418,232.031 86.508 M80.924 123.400 C 80.926 124.720,81.001 125.212,81.090 124.493 C 81.179 123.774,81.177 122.694,81.086 122.093 C 80.995 121.492,80.922 122.080,80.924 123.400 M144.158 124.166 C 144.038 124.478,144.005 125.243,144.084 125.866 C 144.202 126.791,144.264 126.687,144.425 125.300 C 144.627 123.551,144.538 123.175,144.158 124.166 M144.093 144.400 C 144.093 145.170,144.175 145.485,144.276 145.100 C 144.376 144.715,144.376 144.085,144.276 143.700 C 144.175 143.315,144.093 143.630,144.093 144.400 M51.152 147.687 C 51.337 148.798,51.393 148.855,51.519 148.054 C 51.601 147.533,51.503 146.943,51.301 146.741 C 51.079 146.519,51.021 146.893,51.152 147.687 M327.293 148.000 C 327.293 148.770,327.375 149.085,327.476 148.700 C 327.576 148.315,327.576 147.685,327.476 147.300 C 327.375 146.915,327.293 147.230,327.293 148.000 M243.800 156.400 C 243.650 156.873,243.617 157.350,243.727 157.460 C 243.837 157.570,244.050 157.273,244.200 156.800 C 244.350 156.327,244.383 155.850,244.273 155.740 C 244.163 155.630,243.950 155.927,243.800 156.400 M151.802 176.450 C 152.217 177.821,152.736 178.247,152.503 177.024 C 152.394 176.454,152.127 175.878,151.909 175.744 C 151.663 175.592,151.623 175.858,151.802 176.450 M292.031 192.031 C 291.354 192.708,290.800 193.373,290.800 193.509 C 290.800 193.645,291.430 193.146,292.200 192.400 C 292.970 191.654,293.600 190.988,293.600 190.922 C 293.600 190.593,293.153 190.909,292.031 192.031 M176.024 196.900 C 176.341 197.175,176.943 197.760,177.362 198.200 C 177.922 198.788,177.888 198.655,177.235 197.700 C 176.746 196.985,176.143 196.400,175.896 196.400 C 175.632 196.400,175.684 196.606,176.024 196.900 M103.889 202.430 C 104.378 202.939,104.878 203.255,105.001 203.132 C 105.124 203.009,104.724 202.592,104.112 202.206 L 103.000 201.504 103.889 202.430 M170.500 220.276 C 170.885 220.376,171.515 220.376,171.900 220.276 C 172.285 220.175,171.970 220.093,171.200 220.093 C 170.430 220.093,170.115 220.175,170.500 220.276 M312.300 236.276 C 311.915 236.376,311.600 236.625,311.600 236.829 C 311.600 237.366,312.135 237.285,313.024 236.613 C 313.802 236.024,313.608 235.934,312.300 236.276 M268.000 300.400 C 268.000 309.733,268.141 314.800,268.400 314.800 C 268.659 314.800,268.800 309.733,268.800 300.400 C 268.800 291.067,268.659 286.000,268.400 286.000 C 268.141 286.000,268.000 291.067,268.000 300.400 M95.766 287.745 C 95.651 288.044,95.614 289.349,95.684 290.645 L 95.812 293.000 96.006 290.099 C 96.201 287.188,96.154 286.733,95.766 287.745 M98.100 287.491 C 98.925 287.578,100.275 287.578,101.100 287.491 C 101.925 287.405,101.250 287.334,99.600 287.334 C 97.950 287.334,97.275 287.405,98.100 287.491 M137.903 294.500 C 137.385 294.995,137.254 295.175,137.612 294.900 C 137.970 294.625,138.474 294.400,138.731 294.400 C 138.989 294.400,139.200 294.220,139.200 294.000 C 139.200 293.406,138.945 293.504,137.903 294.500 M304.093 294.800 C 304.093 295.570,304.175 295.885,304.276 295.500 C 304.376 295.115,304.376 294.485,304.276 294.100 C 304.175 293.715,304.093 294.030,304.093 294.800 M315.600 294.708 C 315.600 295.350,316.889 295.675,317.367 295.154 C 317.685 294.808,317.663 294.760,317.282 294.976 C 316.998 295.137,316.503 295.051,316.182 294.785 C 315.839 294.500,315.600 294.469,315.600 294.708 M95.761 304.000 C 95.761 307.410,95.822 308.805,95.897 307.100 C 95.972 305.395,95.972 302.605,95.897 300.900 C 95.822 299.195,95.761 300.590,95.761 304.000 M323.767 308.200 C 323.767 312.380,323.826 314.036,323.898 311.879 C 323.971 309.723,323.970 306.303,323.898 304.279 C 323.825 302.256,323.766 304.020,323.767 308.200 M171.596 302.008 C 171.358 302.453,171.264 302.980,171.388 303.181 C 171.512 303.381,171.430 303.658,171.207 303.796 C 170.983 303.934,170.800 304.257,170.800 304.513 C 170.800 304.769,171.088 304.566,171.441 304.063 C 171.793 303.560,171.980 303.046,171.855 302.922 C 171.730 302.797,171.808 302.358,172.028 301.947 C 172.248 301.536,172.338 301.200,172.228 301.200 C 172.118 301.200,171.833 301.564,171.596 302.008 M304.000 308.000 C 304.000 312.267,304.149 314.800,304.400 314.800 C 304.651 314.800,304.800 312.267,304.800 308.000 C 304.800 303.733,304.651 301.200,304.400 301.200 C 304.149 301.200,304.000 303.733,304.000 308.000 M83.709 304.000 C 83.709 304.990,83.787 305.395,83.882 304.900 C 83.978 304.405,83.978 303.595,83.882 303.100 C 83.787 302.605,83.709 303.010,83.709 304.000 M182.000 303.200 L 178.600 303.451 181.876 303.525 C 183.714 303.567,185.261 303.424,185.400 303.200 C 185.536 302.980,185.592 302.834,185.524 302.875 C 185.456 302.916,183.870 303.062,182.000 303.200 M222.620 313.309 C 222.728 313.588,223.217 314.062,223.708 314.361 C 224.559 314.880,224.555 314.856,223.630 313.853 C 222.548 312.677,222.334 312.562,222.620 313.309 M235.693 314.400 C 235.693 315.170,235.775 315.485,235.876 315.100 C 235.976 314.715,235.976 314.085,235.876 313.700 C 235.775 313.315,235.693 313.630,235.693 314.400 M101.200 316.080 C 101.200 316.256,101.830 316.400,102.600 316.400 C 103.370 316.400,104.000 316.330,104.000 316.244 C 104.000 316.158,103.370 316.014,102.600 315.924 C 101.830 315.834,101.200 315.904,101.200 316.080 M79.100 316.282 C 79.595 316.378,80.405 316.378,80.900 316.282 C 81.395 316.187,80.990 316.109,80.000 316.109 C 79.010 316.109,78.605 316.187,79.100 316.282 M208.900 316.276 C 209.285 316.376,209.915 316.376,210.300 316.276 C 210.685 316.175,210.370 316.093,209.600 316.093 C 208.830 316.093,208.515 316.175,208.900 316.276 M253.900 316.282 C 254.395 316.378,255.205 316.378,255.700 316.282 C 256.195 316.187,255.790 316.109,254.800 316.109 C 253.810 316.109,253.405 316.187,253.900 316.282 M282.900 316.276 C 283.285 316.376,283.915 316.376,284.300 316.276 C 284.685 316.175,284.370 316.093,283.600 316.093 C 282.830 316.093,282.515 316.175,282.900 316.276 M337.905 324.283 C 338.402 324.379,339.122 324.375,339.505 324.275 C 339.887 324.175,339.480 324.096,338.600 324.101 C 337.720 324.105,337.407 324.187,337.905 324.283 " stroke="none" fill="#04a4e4" fill-rule="evenodd"></path><path id="path1" d="" stroke="none" fill="#08a4e4" fill-rule="evenodd"></path><path id="path2" d="" stroke="none" fill="#08a4e4" fill-rule="evenodd"></path><path id="path3" d="" stroke="none" fill="#08a4e4" fill-rule="evenodd"></path><path id="path4" d="M196.400 58.799 C 196.400 59.116,196.060 59.201,195.429 59.043 C 194.803 58.886,194.231 59.027,193.819 59.438 C 193.467 59.790,192.919 59.978,192.600 59.855 C 192.282 59.733,191.842 59.941,191.623 60.317 C 191.404 60.692,191.219 60.869,191.212 60.709 C 191.186 60.082,187.634 62.727,185.603 64.885 C 184.424 66.137,183.284 67.052,183.068 66.919 C 182.853 66.785,182.798 66.873,182.947 67.114 C 183.095 67.354,182.988 67.697,182.708 67.875 C 182.429 68.054,181.485 69.010,180.611 70.000 C 179.737 70.990,178.943 71.738,178.848 71.662 C 178.753 71.586,178.388 72.017,178.037 72.619 C 177.152 74.141,175.706 75.566,175.360 75.258 C 175.202 75.116,175.188 75.203,175.329 75.451 C 175.471 75.699,174.960 76.567,174.193 77.380 C 173.427 78.192,172.800 79.101,172.800 79.399 C 172.800 79.698,172.356 80.291,171.814 80.718 C 171.271 81.145,170.941 81.608,171.080 81.747 C 171.219 81.886,171.133 82.000,170.888 82.000 C 170.643 82.000,169.972 82.945,169.397 84.100 C 168.822 85.255,167.958 86.531,167.476 86.935 C 166.994 87.339,166.870 87.533,167.200 87.366 C 167.643 87.142,167.617 87.271,167.100 87.863 C 166.715 88.303,166.400 88.852,166.400 89.083 C 166.400 89.313,166.132 89.724,165.804 89.996 C 165.477 90.268,165.307 90.650,165.428 90.845 C 165.549 91.040,165.476 91.200,165.267 91.200 C 165.058 91.200,164.774 91.650,164.636 92.200 C 164.498 92.750,164.208 93.200,163.992 93.200 C 163.777 93.200,163.600 93.560,163.600 94.000 C 163.600 94.440,163.409 94.800,163.176 94.800 C 162.943 94.800,162.864 94.980,163.000 95.200 C 163.136 95.420,163.057 95.600,162.824 95.600 C 162.591 95.600,162.400 95.865,162.400 96.189 C 162.400 96.766,161.449 99.102,159.992 102.105 C 159.590 102.932,159.473 103.483,159.731 103.328 C 160.074 103.122,160.071 103.206,159.720 103.641 C 159.171 104.319,157.449 109.620,156.809 112.600 C 156.572 113.700,156.269 114.870,156.134 115.200 C 155.999 115.530,155.819 116.430,155.734 117.200 C 155.649 117.970,155.554 118.825,155.523 119.100 C 155.492 119.375,155.327 119.600,155.157 119.600 C 154.986 119.600,154.851 120.185,154.857 120.900 C 154.862 121.615,154.753 122.920,154.615 123.800 C 153.944 128.064,153.726 139.018,154.198 144.738 C 154.528 148.736,154.552 148.887,154.937 149.504 C 155.110 149.781,155.138 150.366,154.999 150.804 C 154.860 151.242,154.907 151.600,155.104 151.600 C 155.300 151.600,155.386 152.116,155.293 152.747 C 155.200 153.378,155.390 154.413,155.715 155.047 C 156.275 156.141,157.036 159.456,156.875 160.100 C 156.834 160.265,156.969 160.400,157.175 160.400 C 157.381 160.400,157.530 160.715,157.506 161.100 C 157.469 161.687,158.736 166.310,159.506 168.400 C 159.628 168.730,159.698 169.135,159.664 169.300 C 159.629 169.465,159.773 169.600,159.984 169.600 C 160.195 169.600,160.584 170.320,160.847 171.200 C 161.111 172.080,161.489 172.800,161.687 172.800 C 161.885 172.800,161.925 172.997,161.776 173.238 C 161.628 173.479,161.864 174.161,162.303 174.754 C 162.741 175.347,163.226 176.409,163.382 177.116 C 163.537 177.822,163.815 178.400,164.001 178.400 C 164.186 178.400,164.546 179.032,164.801 179.804 C 165.073 180.628,165.442 181.098,165.694 180.942 C 165.946 180.786,166.008 180.864,165.843 181.131 C 165.688 181.381,166.020 182.261,166.581 183.086 C 167.141 183.911,167.600 184.795,167.600 185.050 C 167.600 185.305,167.844 185.608,168.141 185.722 C 168.439 185.836,169.057 186.649,169.515 187.528 C 169.973 188.406,171.006 189.997,171.809 191.063 C 172.612 192.128,173.659 193.527,174.135 194.172 C 174.611 194.817,175.540 195.910,176.200 196.602 C 176.860 197.294,178.029 198.656,178.798 199.630 C 179.567 200.603,180.917 202.110,181.798 202.977 C 182.679 203.844,183.130 204.414,182.800 204.244 C 182.470 204.075,182.673 204.355,183.251 204.868 C 185.021 206.438,187.239 208.193,187.632 208.334 C 187.837 208.408,187.903 208.633,187.779 208.834 C 187.655 209.035,187.814 209.200,188.134 209.200 C 188.453 209.200,188.814 209.459,188.935 209.776 C 189.057 210.092,190.066 210.675,191.178 211.070 C 192.290 211.465,193.200 211.920,193.200 212.081 C 193.200 212.243,193.452 212.278,193.760 212.160 C 194.067 212.042,194.440 212.141,194.587 212.379 C 194.735 212.618,195.023 212.709,195.228 212.583 C 195.432 212.456,195.600 212.523,195.600 212.731 C 195.600 212.947,197.570 213.108,200.194 213.107 C 202.747 213.105,204.691 212.947,204.570 212.751 C 204.450 212.556,204.760 212.460,205.260 212.536 C 206.335 212.700,210.291 210.825,211.359 209.645 C 211.770 209.191,212.263 208.915,212.453 209.033 C 212.644 209.151,212.800 209.059,212.800 208.828 C 212.800 208.598,213.535 207.733,214.433 206.905 C 218.257 203.380,222.400 199.088,222.400 198.650 C 222.400 198.057,223.850 196.784,224.166 197.100 C 224.295 197.228,224.400 197.123,224.400 196.867 C 224.400 196.002,224.505 195.802,225.221 195.300 C 225.613 195.025,226.345 194.125,226.847 193.300 C 227.348 192.475,228.080 191.512,228.472 191.159 C 228.864 190.807,229.069 190.402,228.926 190.259 C 228.783 190.117,228.855 190.000,229.086 190.000 C 229.316 190.000,230.001 189.020,230.607 187.822 C 231.213 186.624,231.936 185.557,232.214 185.450 C 232.701 185.263,236.000 178.807,236.000 178.041 C 236.000 177.835,236.209 177.597,236.463 177.512 C 236.718 177.427,236.989 176.948,237.066 176.448 C 237.142 175.948,237.473 175.270,237.802 174.941 C 238.130 174.613,238.516 173.862,238.659 173.272 C 238.803 172.682,239.438 171.060,240.070 169.667 C 241.339 166.875,243.600 159.211,243.600 157.704 C 243.600 157.178,243.814 156.354,244.075 155.874 C 244.337 155.393,244.611 154.640,244.684 154.200 C 245.124 151.558,245.262 150.564,245.768 146.400 C 246.682 138.865,246.500 127.576,245.371 121.800 C 245.242 121.140,245.073 120.150,244.996 119.600 C 244.918 119.050,244.823 118.510,244.783 118.400 C 244.744 118.290,244.744 117.795,244.784 117.300 C 244.824 116.805,244.645 116.400,244.385 116.400 C 244.086 116.400,244.002 116.046,244.156 115.433 C 244.289 114.901,244.264 114.406,244.099 114.333 C 243.849 114.222,242.706 110.553,242.251 108.400 C 241.759 106.076,241.451 105.200,241.126 105.200 C 240.921 105.200,240.851 105.041,240.972 104.846 C 241.206 104.466,240.447 101.932,239.999 101.600 C 239.851 101.490,239.226 100.050,238.610 98.400 C 237.995 96.750,237.094 94.860,236.609 94.200 C 236.124 93.540,235.613 92.538,235.474 91.974 C 235.335 91.409,234.857 90.527,234.411 90.013 C 233.965 89.498,233.600 88.745,233.600 88.339 C 233.600 87.932,233.349 87.600,233.043 87.600 C 232.377 87.600,231.890 86.516,232.263 85.864 C 232.409 85.609,232.378 85.536,232.194 85.703 C 232.011 85.870,231.351 85.074,230.727 83.934 C 230.104 82.794,229.322 81.578,228.989 81.231 C 227.613 79.796,225.200 76.450,225.200 75.976 C 225.200 75.696,225.089 75.578,224.952 75.714 C 224.697 75.970,223.600 75.061,223.600 74.594 C 223.600 74.340,222.202 72.717,219.887 70.283 C 219.275 69.639,218.308 68.502,217.739 67.756 C 217.171 67.010,216.538 66.400,216.334 66.400 C 215.820 66.400,214.220 64.751,213.884 63.874 C 213.731 63.475,213.443 63.250,213.245 63.372 C 213.046 63.495,212.776 63.315,212.645 62.972 C 212.513 62.630,212.243 62.450,212.045 62.572 C 211.846 62.695,211.581 62.526,211.454 62.198 C 211.328 61.869,210.949 61.600,210.613 61.600 C 210.276 61.600,210.000 61.464,210.000 61.298 C 210.000 61.131,209.415 60.741,208.700 60.430 C 207.985 60.119,207.297 59.710,207.170 59.522 C 206.612 58.692,196.400 58.006,196.400 58.799 M136.800 67.143 C 136.800 67.331,136.305 67.497,135.700 67.511 C 133.527 67.562,129.600 68.983,129.600 69.718 C 129.600 69.899,129.441 69.949,129.247 69.829 C 128.791 69.547,124.355 74.004,124.637 74.461 C 124.755 74.650,124.569 74.914,124.225 75.046 C 123.881 75.178,123.600 75.611,123.600 76.009 C 123.600 76.408,123.431 76.793,123.225 76.867 C 123.018 76.940,122.789 77.450,122.714 78.000 C 122.640 78.550,122.468 79.180,122.331 79.400 C 122.008 79.919,122.028 87.200,122.353 87.201 C 122.489 87.201,122.640 87.773,122.689 88.471 C 122.739 89.169,122.919 89.843,123.089 89.970 C 123.260 90.096,123.459 90.470,123.530 90.800 C 123.602 91.130,123.827 91.460,124.030 91.533 C 124.234 91.607,124.400 91.922,124.400 92.233 C 124.400 92.545,124.580 92.800,124.800 92.800 C 125.020 92.800,125.200 93.040,125.200 93.334 C 125.200 93.876,127.165 95.840,127.683 95.814 C 127.838 95.806,128.238 96.160,128.570 96.600 C 128.903 97.040,129.180 97.267,129.187 97.104 C 129.194 96.941,129.557 97.114,129.994 97.487 C 132.560 99.684,144.400 100.228,144.400 98.148 C 144.400 97.861,144.655 97.723,144.968 97.843 C 145.921 98.209,151.200 94.158,151.200 93.061 C 151.200 92.856,151.515 92.430,151.900 92.114 C 152.353 91.743,152.389 91.634,152.000 91.805 C 151.670 91.950,151.850 91.698,152.400 91.244 C 152.950 90.789,153.243 90.414,153.051 90.409 C 152.859 90.404,152.895 90.168,153.131 89.884 C 154.351 88.413,154.601 80.033,153.497 77.597 C 153.148 76.829,152.746 75.792,152.603 75.294 C 152.460 74.796,152.175 74.492,151.971 74.618 C 151.767 74.744,151.600 74.682,151.600 74.480 C 151.600 73.832,148.982 70.780,147.974 70.252 C 147.438 69.971,146.640 69.544,146.200 69.303 C 143.493 67.818,141.864 67.232,140.794 67.356 C 140.128 67.434,139.487 67.340,139.368 67.148 C 139.090 66.698,136.800 66.692,136.800 67.143 M260.800 67.103 C 260.800 67.269,259.928 67.409,258.861 67.413 C 257.604 67.418,256.692 67.651,256.265 68.078 C 255.903 68.440,254.976 68.944,254.204 69.199 C 253.432 69.454,252.800 69.828,252.800 70.031 C 252.800 70.234,252.519 70.400,252.176 70.400 C 251.802 70.400,251.668 70.587,251.842 70.868 C 252.036 71.182,251.914 71.253,251.470 71.082 C 251.107 70.943,250.852 70.961,250.905 71.122 C 250.957 71.284,250.493 71.952,249.874 72.608 C 248.756 73.791,247.545 75.754,247.626 76.251 C 247.649 76.394,247.509 76.621,247.315 76.755 C 246.214 77.517,245.369 88.037,246.462 87.362 C 246.676 87.230,246.723 87.569,246.573 88.166 C 246.405 88.836,246.478 89.200,246.780 89.200 C 247.037 89.200,247.136 89.380,247.000 89.600 C 246.864 89.820,246.963 90.000,247.219 90.000 C 247.476 90.000,247.582 90.270,247.455 90.600 C 247.329 90.930,247.404 91.200,247.622 91.200 C 247.841 91.200,248.187 91.641,248.392 92.179 C 248.891 93.491,251.596 96.450,252.044 96.173 C 252.240 96.052,252.400 96.140,252.400 96.368 C 252.400 96.890,255.312 98.400,256.317 98.400 C 256.729 98.400,257.193 98.527,257.348 98.682 C 258.764 100.098,266.058 99.553,269.878 97.746 C 272.900 96.316,277.321 91.166,276.569 89.951 C 276.444 89.747,276.552 89.630,276.810 89.690 C 278.579 90.105,278.707 79.702,276.974 76.350 C 276.650 75.722,276.432 75.120,276.492 75.012 C 276.551 74.904,276.187 74.526,275.683 74.173 C 275.179 73.820,274.322 72.827,273.778 71.966 C 273.235 71.105,272.603 70.400,272.374 70.400 C 272.145 70.400,271.295 69.950,270.486 69.400 C 269.677 68.850,268.696 68.400,268.307 68.400 C 267.918 68.400,267.600 68.226,267.600 68.013 C 267.600 67.799,267.330 67.729,267.000 67.855 C 266.670 67.982,266.400 67.873,266.400 67.612 C 266.400 67.316,265.883 67.183,265.021 67.257 C 264.263 67.323,263.513 67.247,263.355 67.088 C 262.971 66.705,260.800 66.717,260.800 67.103 M97.400 99.483 C 96.520 99.559,95.440 99.781,95.000 99.976 C 89.398 102.457,88.473 103.038,85.902 105.695 C 84.418 107.228,83.303 108.644,83.425 108.841 C 83.547 109.038,83.474 109.200,83.263 109.200 C 82.834 109.200,82.131 110.837,81.372 113.600 C 80.956 115.113,80.854 129.758,81.233 133.400 C 81.417 135.160,81.659 137.590,81.773 138.800 C 81.886 140.010,82.091 141.450,82.228 142.000 C 82.722 143.982,82.904 145.012,82.878 145.692 C 82.863 146.073,83.003 146.478,83.188 146.593 C 83.373 146.707,83.431 147.161,83.316 147.600 C 83.187 148.093,83.304 148.400,83.620 148.400 C 83.902 148.400,84.020 148.514,83.881 148.653 C 83.742 148.792,83.840 149.287,84.099 149.753 C 84.358 150.219,84.537 150.720,84.496 150.866 C 84.456 151.012,84.721 152.092,85.085 153.266 C 85.449 154.440,85.767 155.490,85.792 155.600 C 86.288 157.836,87.029 160.000,87.299 160.000 C 87.491 160.000,87.529 160.191,87.384 160.425 C 87.240 160.659,87.395 161.154,87.730 161.525 C 88.064 161.896,88.462 162.697,88.613 163.304 C 88.765 163.911,89.049 164.506,89.244 164.627 C 89.440 164.748,89.600 165.172,89.600 165.570 C 89.600 165.967,90.002 166.803,90.493 167.427 C 90.984 168.051,91.166 168.426,90.897 168.260 C 90.567 168.056,90.486 168.159,90.647 168.579 C 90.778 168.921,91.057 169.200,91.266 169.200 C 91.476 169.200,91.550 169.357,91.432 169.548 C 91.313 169.740,91.573 170.308,92.008 170.810 C 92.444 171.312,92.800 171.965,92.800 172.261 C 92.800 172.558,92.980 172.800,93.200 172.800 C 93.420 172.800,93.600 173.070,93.600 173.400 C 93.600 173.730,93.945 174.345,94.367 174.767 C 94.788 175.188,95.028 175.638,94.900 175.767 C 94.772 175.895,94.896 176.000,95.176 176.000 C 95.462 176.000,95.586 176.260,95.458 176.594 C 95.327 176.933,95.537 177.352,95.948 177.572 C 96.343 177.783,97.101 178.776,97.632 179.778 C 98.164 180.780,98.734 181.600,98.899 181.600 C 99.065 181.600,99.200 181.864,99.200 182.186 C 99.200 182.508,99.560 182.965,100.000 183.200 C 100.440 183.435,100.800 183.877,100.800 184.181 C 100.800 184.485,100.942 184.793,101.117 184.867 C 101.291 184.940,101.942 185.675,102.564 186.500 C 103.186 187.325,103.954 188.000,104.271 188.000 C 104.588 188.000,104.748 188.160,104.627 188.356 C 104.251 188.964,113.493 197.878,116.422 199.733 C 117.070 200.143,117.600 200.632,117.600 200.821 C 117.600 201.009,118.187 201.441,118.904 201.781 C 119.622 202.122,120.743 202.895,121.396 203.500 C 122.050 204.105,122.749 204.546,122.950 204.481 C 123.151 204.415,123.785 204.791,124.358 205.316 C 125.607 206.460,129.995 208.934,130.012 208.503 C 130.019 208.337,130.210 208.519,130.437 208.908 C 130.664 209.298,131.018 209.512,131.225 209.385 C 131.431 209.257,131.600 209.343,131.600 209.576 C 131.600 209.809,131.792 210.000,132.027 210.000 C 132.261 210.000,134.172 210.830,136.272 211.845 C 138.373 212.860,140.520 213.715,141.045 213.745 C 141.570 213.775,142.000 213.935,142.000 214.100 C 142.000 214.265,142.249 214.400,142.554 214.400 C 143.514 214.400,147.387 215.741,147.694 216.180 C 147.856 216.411,147.991 216.443,147.994 216.251 C 147.997 216.059,148.270 216.126,148.600 216.400 C 149.084 216.801,149.201 216.792,149.206 216.349 C 149.211 215.916,149.281 215.908,149.536 216.309 C 149.713 216.590,150.206 216.888,150.629 216.973 C 151.053 217.058,153.243 217.499,155.495 217.954 C 157.748 218.409,161.618 218.986,164.095 219.237 C 166.573 219.488,168.870 219.782,169.200 219.891 C 170.086 220.184,172.770 220.164,173.072 219.862 C 173.216 219.718,173.650 219.600,174.038 219.600 C 174.426 219.600,175.024 219.319,175.368 218.974 C 175.712 218.630,176.166 218.456,176.377 218.586 C 176.588 218.716,176.964 218.442,177.213 217.976 C 177.730 217.009,177.352 213.200,176.739 213.200 C 176.527 213.200,176.464 213.020,176.600 212.800 C 176.736 212.580,176.657 212.400,176.424 212.400 C 176.191 212.400,176.045 212.259,176.100 212.087 C 176.155 211.915,175.615 211.201,174.900 210.500 C 174.185 209.800,173.600 209.030,173.600 208.790 C 173.600 208.549,173.439 208.452,173.243 208.574 C 173.046 208.695,172.771 208.338,172.631 207.781 C 172.491 207.223,172.201 206.876,171.985 207.009 C 171.770 207.142,171.487 206.970,171.355 206.628 C 171.224 206.285,170.927 206.121,170.696 206.264 C 170.465 206.407,170.388 206.343,170.524 206.122 C 170.661 205.902,170.454 205.379,170.066 204.961 C 169.677 204.542,169.233 203.868,169.078 203.462 C 168.923 203.056,168.480 202.641,168.093 202.540 C 167.480 202.380,166.005 200.382,166.041 199.763 C 166.048 199.641,165.583 199.105,165.006 198.571 C 164.430 198.037,164.103 197.595,164.279 197.588 C 164.456 197.581,164.285 197.392,163.900 197.168 C 163.515 196.944,163.200 196.582,163.200 196.363 C 163.200 196.145,162.474 194.984,161.587 193.783 C 160.700 192.582,160.077 191.600,160.203 191.600 C 160.328 191.600,160.047 191.195,159.577 190.700 C 158.760 189.839,158.038 188.458,158.148 187.969 C 158.177 187.842,157.696 187.077,157.080 186.269 C 156.463 185.461,156.065 184.800,156.195 184.800 C 156.325 184.800,156.064 184.406,155.616 183.925 C 155.167 183.443,154.800 182.757,154.800 182.401 C 154.800 182.045,154.536 181.404,154.213 180.976 C 153.890 180.549,153.620 179.892,153.613 179.516 C 153.606 179.139,153.266 178.509,152.858 178.116 C 152.450 177.722,151.704 176.140,151.200 174.600 C 150.696 173.060,150.153 171.524,149.993 171.187 C 149.833 170.850,149.565 169.952,149.398 169.193 C 149.232 168.433,148.869 167.449,148.592 167.006 C 148.315 166.563,148.143 165.884,148.209 165.498 C 148.275 165.112,148.186 164.885,148.010 164.994 C 147.834 165.103,147.598 164.699,147.485 164.096 C 147.373 163.493,147.163 162.550,147.019 162.000 C 146.875 161.450,146.690 160.640,146.608 160.200 C 146.526 159.760,146.357 158.950,146.233 158.400 C 145.655 155.844,145.555 155.298,145.387 153.801 C 145.289 152.922,145.071 152.157,144.904 152.102 C 144.737 152.046,144.629 151.235,144.664 150.300 C 144.699 149.365,144.519 148.340,144.264 148.023 C 143.898 147.568,143.914 147.515,144.340 147.771 C 144.765 148.027,144.794 147.936,144.477 147.345 C 144.256 146.931,144.103 145.739,144.137 144.696 C 144.172 143.653,144.065 142.799,143.900 142.800 C 143.495 142.800,143.515 129.300,143.920 129.050 C 144.096 128.941,144.175 127.837,144.095 126.596 C 144.016 125.356,144.115 124.129,144.315 123.870 C 144.827 123.208,144.827 116.400,144.315 116.400 C 144.091 116.400,143.992 115.955,144.096 115.412 C 144.199 114.869,144.130 114.519,143.942 114.636 C 143.754 114.752,143.600 114.513,143.600 114.104 C 143.600 113.695,143.425 113.185,143.211 112.971 C 142.998 112.758,142.760 112.168,142.682 111.661 C 142.415 109.913,138.368 105.480,136.219 104.582 C 135.469 104.269,134.740 103.826,134.600 103.600 C 134.459 103.373,134.169 103.295,133.955 103.428 C 133.740 103.560,133.348 103.496,133.082 103.285 C 132.817 103.073,132.060 102.810,131.400 102.699 C 130.740 102.587,128.850 102.207,127.200 101.853 C 124.332 101.239,117.016 100.141,113.200 99.754 C 110.759 99.506,99.386 99.311,97.400 99.483 M288.900 99.503 C 288.185 99.584,287.600 99.841,287.600 100.074 C 287.600 100.372,287.449 100.372,287.090 100.074 C 286.809 99.841,286.134 99.726,285.590 99.818 C 285.045 99.911,283.430 100.163,282.000 100.378 C 273.006 101.735,270.800 102.148,270.800 102.478 C 270.800 102.681,270.627 102.741,270.416 102.610 C 269.932 102.311,264.800 103.657,264.800 104.084 C 264.800 104.258,264.530 104.400,264.200 104.400 C 263.870 104.400,263.600 104.580,263.600 104.800 C 263.600 105.020,263.341 105.200,263.025 105.200 C 262.241 105.200,258.425 109.185,258.142 110.300 C 258.016 110.795,257.785 111.200,257.629 111.200 C 257.473 111.200,257.100 112.100,256.800 113.200 C 256.500 114.300,256.146 115.200,256.013 115.200 C 255.879 115.200,255.743 115.564,255.709 116.009 C 255.676 116.453,255.815 116.714,256.020 116.588 C 256.224 116.462,256.284 116.638,256.153 116.979 C 256.022 117.321,255.778 117.600,255.611 117.600 C 255.444 117.600,255.316 118.680,255.326 120.000 C 255.336 121.320,255.466 122.400,255.614 122.400 C 255.763 122.400,255.846 123.165,255.798 124.100 C 255.751 125.035,255.851 125.890,256.020 126.001 C 256.744 126.475,256.719 146.245,255.995 145.797 C 255.803 145.678,255.645 146.441,255.643 147.491 C 255.639 150.324,255.459 152.175,255.165 152.400 C 255.022 152.510,254.778 153.590,254.625 154.800 C 254.314 157.247,254.240 157.672,253.832 159.400 C 252.825 163.662,252.241 165.600,251.964 165.600 C 251.789 165.600,251.716 165.965,251.802 166.411 C 251.888 166.857,251.800 167.123,251.606 167.003 C 251.412 166.884,251.268 167.323,251.287 167.979 C 251.306 168.635,251.098 169.441,250.826 169.769 C 250.554 170.097,250.447 170.553,250.589 170.782 C 250.731 171.012,250.697 171.200,250.514 171.200 C 250.331 171.200,249.753 172.460,249.228 174.000 C 248.704 175.540,248.144 176.800,247.984 176.800 C 247.824 176.800,247.562 177.205,247.400 177.700 C 247.239 178.195,247.061 178.735,247.004 178.900 C 246.743 179.655,246.708 179.819,246.753 180.100 C 246.779 180.265,246.632 180.400,246.427 180.400 C 246.047 180.400,245.489 181.680,245.250 183.100 C 245.222 183.265,244.753 183.918,244.208 184.552 C 243.663 185.186,243.314 185.861,243.432 186.052 C 243.550 186.243,243.446 186.400,243.200 186.400 C 242.954 186.400,242.864 186.580,243.000 186.800 C 243.136 187.020,243.069 187.200,242.851 187.200 C 242.632 187.200,242.336 187.572,242.192 188.026 C 242.047 188.481,241.148 189.994,240.193 191.388 C 239.239 192.783,238.564 194.031,238.695 194.162 C 238.826 194.293,238.693 194.400,238.400 194.400 C 238.107 194.400,237.972 194.505,238.100 194.633 C 238.335 194.868,237.919 195.428,235.900 197.593 C 235.295 198.242,234.799 199.004,234.797 199.287 C 234.796 199.569,234.084 200.520,233.217 201.400 C 232.349 202.280,231.630 203.236,231.620 203.524 C 231.609 203.812,231.420 203.936,231.200 203.800 C 230.980 203.664,230.800 203.698,230.800 203.877 C 230.800 204.055,230.053 205.010,229.140 206.000 C 226.466 208.899,223.202 212.786,223.175 213.105 C 223.161 213.267,223.061 214.179,222.952 215.131 C 222.826 216.233,222.944 217.097,223.277 217.508 C 223.715 218.048,223.708 218.098,223.238 217.815 C 222.857 217.585,222.768 217.625,222.962 217.938 C 223.119 218.192,223.485 218.400,223.775 218.400 C 224.065 218.400,224.526 218.670,224.800 219.000 C 225.074 219.330,225.816 219.600,226.449 219.600 C 227.082 219.600,227.601 219.735,227.601 219.900 C 227.602 220.065,228.322 220.209,229.201 220.219 C 230.081 220.230,230.800 220.121,230.800 219.977 C 230.800 219.833,232.105 219.604,233.700 219.468 C 238.315 219.074,240.526 218.821,241.600 218.564 C 244.081 217.971,247.926 217.188,249.343 216.988 C 249.971 216.900,250.740 216.615,251.052 216.357 C 251.364 216.098,251.733 216.000,251.873 216.140 C 252.012 216.279,252.323 216.246,252.563 216.065 C 253.112 215.654,256.012 214.641,258.500 213.992 C 259.545 213.719,260.400 213.329,260.400 213.124 C 260.400 212.920,260.591 212.871,260.825 213.016 C 261.059 213.160,261.608 212.955,262.044 212.560 C 262.481 212.165,263.116 211.800,263.456 211.751 C 264.419 211.609,270.000 209.087,270.000 208.793 C 270.000 208.648,271.018 208.031,272.263 207.422 C 273.508 206.812,274.885 205.979,275.324 205.571 C 275.762 205.162,276.274 204.922,276.461 205.037 C 276.647 205.153,276.800 205.046,276.800 204.800 C 276.800 204.554,276.948 204.444,277.129 204.556 C 277.309 204.668,277.730 204.453,278.064 204.080 C 279.149 202.863,280.795 201.600,281.303 201.593 C 281.576 201.590,282.507 200.870,283.370 199.993 C 284.234 199.117,285.148 198.400,285.401 198.400 C 285.654 198.400,286.297 197.921,286.830 197.335 C 287.364 196.750,287.575 196.401,287.300 196.559 C 287.025 196.718,286.800 196.764,286.800 196.662 C 286.800 196.560,287.607 196.003,288.593 195.425 C 289.579 194.848,290.582 194.007,290.823 193.557 C 291.384 192.509,292.514 191.381,293.570 190.816 C 294.026 190.572,294.400 190.151,294.400 189.882 C 294.400 189.613,294.767 189.163,295.216 188.883 C 295.664 188.603,295.906 188.172,295.754 187.925 C 295.601 187.678,295.652 187.585,295.867 187.718 C 296.251 187.955,297.600 186.683,297.600 186.084 C 297.600 185.915,297.960 185.517,298.400 185.200 C 298.840 184.883,299.200 184.399,299.200 184.126 C 299.200 183.852,299.560 183.435,300.000 183.200 C 300.440 182.965,300.800 182.508,300.800 182.186 C 300.800 181.864,300.972 181.600,301.181 181.600 C 301.391 181.600,301.914 180.805,302.344 179.834 C 302.773 178.863,303.507 177.864,303.974 177.614 C 304.440 177.364,304.717 176.989,304.588 176.780 C 304.458 176.571,304.499 176.400,304.677 176.400 C 304.855 176.400,305.502 175.365,306.113 174.100 C 306.725 172.835,307.662 171.080,308.195 170.200 C 309.388 168.234,310.800 165.243,310.800 164.684 C 310.800 164.457,311.272 163.465,311.848 162.482 C 312.425 161.498,312.650 160.838,312.348 161.015 C 312.047 161.193,312.143 160.947,312.562 160.469 C 312.981 159.991,313.184 159.600,313.013 159.600 C 312.842 159.600,312.926 159.330,313.200 159.000 C 313.474 158.670,313.564 158.400,313.400 158.400 C 313.236 158.400,313.326 158.130,313.600 157.800 C 313.874 157.470,313.950 157.200,313.769 157.200 C 313.588 157.200,313.656 156.984,313.920 156.720 C 314.184 156.456,314.404 155.781,314.408 155.220 C 314.413 154.659,314.842 152.994,315.363 151.521 C 315.883 150.047,316.209 148.742,316.087 148.621 C 315.966 148.499,316.071 148.400,316.321 148.400 C 316.571 148.400,316.675 148.139,316.552 147.819 C 316.429 147.500,316.475 147.005,316.653 146.719 C 316.990 146.180,317.107 145.736,317.388 143.926 C 317.480 143.335,317.738 141.805,317.961 140.526 C 319.002 134.566,319.696 116.229,318.911 115.444 C 318.791 115.324,318.623 114.463,318.540 113.532 C 318.456 112.601,318.198 111.722,317.967 111.580 C 317.602 111.354,317.337 110.597,317.231 109.476 C 317.214 109.298,316.989 109.283,316.732 109.442 C 316.429 109.630,316.344 109.522,316.492 109.137 C 316.622 108.798,316.394 108.339,315.960 108.068 C 315.542 107.807,315.200 107.389,315.200 107.140 C 315.200 106.553,312.950 104.400,312.337 104.400 C 312.078 104.400,311.977 104.290,312.111 104.156 C 312.693 103.573,307.364 100.400,305.804 100.400 C 305.472 100.400,305.200 100.243,305.200 100.052 C 305.200 99.861,304.311 99.736,303.224 99.775 C 302.137 99.814,301.339 99.699,301.450 99.519 C 301.643 99.206,291.626 99.194,288.900 99.503 M58.100 137.339 C 57.385 137.574,56.800 137.908,56.800 138.083 C 56.800 138.257,56.455 138.400,56.034 138.400 C 55.352 138.400,52.800 141.080,52.800 141.796 C 52.800 141.950,52.428 142.599,51.973 143.238 C 51.518 143.877,51.254 144.400,51.387 144.400 C 51.520 144.400,51.425 144.779,51.177 145.243 C 50.851 145.853,50.847 146.207,51.163 146.523 C 51.403 146.763,51.579 147.419,51.553 147.980 C 51.507 148.957,51.491 148.949,51.168 147.800 C 50.792 146.458,50.947 149.347,51.345 151.082 C 51.624 152.299,54.856 156.813,55.266 156.559 C 55.450 156.446,55.600 156.529,55.600 156.743 C 55.600 157.507,59.320 158.565,61.973 158.556 C 64.758 158.547,67.758 157.779,67.383 157.172 C 67.259 156.973,67.438 156.916,67.779 157.047 C 68.182 157.202,68.400 157.059,68.400 156.643 C 68.400 156.289,68.591 156.000,68.824 156.000 C 69.057 156.000,69.136 156.180,69.000 156.400 C 68.864 156.620,68.829 156.800,68.923 156.800 C 69.497 156.800,72.880 150.852,72.581 150.368 C 72.474 150.196,72.570 149.942,72.793 149.804 C 73.410 149.423,73.275 146.353,72.583 145.026 C 72.246 144.381,72.057 143.627,72.163 143.352 C 72.269 143.077,72.227 142.795,72.071 142.726 C 71.914 142.657,71.099 141.655,70.259 140.500 C 68.880 138.603,67.909 137.641,68.645 138.900 C 68.806 139.175,68.585 139.092,68.154 138.715 C 66.098 136.918,61.360 136.269,58.100 137.339 M335.000 137.210 C 333.805 137.472,330.297 139.200,330.960 139.200 C 331.152 139.200,330.811 139.695,330.202 140.300 C 327.806 142.680,326.271 149.931,327.879 151.266 C 328.166 151.503,328.400 152.036,328.400 152.449 C 328.400 152.862,328.580 153.200,328.800 153.200 C 329.020 153.200,329.200 153.399,329.200 153.642 C 329.200 155.891,334.190 158.542,338.400 158.529 C 341.271 158.521,345.753 157.087,345.187 156.358 C 345.084 156.225,345.585 155.624,346.300 155.023 C 347.015 154.421,347.600 153.675,347.600 153.364 C 347.600 153.054,347.791 152.800,348.024 152.800 C 348.257 152.800,348.345 152.635,348.221 152.434 C 348.097 152.233,348.210 151.997,348.473 151.909 C 349.492 151.569,348.979 143.322,347.871 142.214 C 347.502 141.845,347.200 141.421,347.200 141.271 C 347.199 140.847,345.202 138.631,345.187 139.038 C 345.180 139.237,344.951 139.106,344.677 138.746 C 343.494 137.192,338.619 136.418,335.000 137.210 M66.019 162.780 C 65.700 162.982,65.315 163.071,65.165 162.978 C 64.723 162.705,62.278 163.683,61.431 164.472 C 61.001 164.872,60.323 165.200,59.925 165.200 C 59.526 165.200,59.200 165.470,59.200 165.800 C 59.200 166.130,59.065 166.379,58.900 166.353 C 58.027 166.215,57.181 166.446,57.380 166.767 C 57.505 166.970,57.065 167.254,56.403 167.399 C 55.742 167.545,55.200 167.816,55.200 168.002 C 55.200 168.189,54.245 168.888,53.078 169.555 C 51.911 170.223,50.395 171.386,49.709 172.141 C 49.022 172.895,48.124 173.757,47.712 174.056 C 46.906 174.642,45.200 177.729,44.157 180.489 C 43.435 182.399,43.036 190.651,43.647 191.029 C 43.848 191.153,43.909 191.423,43.783 191.628 C 43.656 191.832,43.743 192.000,43.976 192.000 C 44.209 192.000,44.400 192.279,44.400 192.621 C 44.400 193.435,47.081 198.603,47.823 199.219 C 48.140 199.482,48.400 199.946,48.400 200.249 C 48.400 200.552,48.562 200.800,48.761 200.800 C 48.959 200.800,49.311 201.342,49.542 202.005 C 49.773 202.668,50.229 203.313,50.556 203.438 C 50.882 203.564,51.061 203.898,50.952 204.181 C 50.843 204.465,51.046 204.809,51.402 204.946 C 51.759 205.082,51.939 205.376,51.802 205.597 C 51.665 205.819,51.719 206.000,51.923 206.000 C 52.244 206.000,53.726 207.905,55.000 209.956 C 55.408 210.613,56.171 211.459,60.400 215.947 C 61.720 217.348,62.800 218.653,62.800 218.847 C 62.800 219.041,63.002 219.200,63.248 219.200 C 63.494 219.200,64.448 219.965,65.367 220.900 C 67.659 223.232,71.228 226.243,71.411 226.000 C 71.494 225.890,72.044 226.381,72.632 227.092 C 73.221 227.802,73.860 228.287,74.051 228.168 C 74.243 228.050,74.400 228.233,74.400 228.576 C 74.400 228.919,74.670 229.200,75.000 229.200 C 75.330 229.200,75.600 229.380,75.600 229.600 C 75.600 229.820,75.856 230.000,76.169 230.000 C 76.482 230.000,77.329 230.495,78.052 231.100 C 78.774 231.705,79.202 231.930,79.003 231.600 C 78.805 231.270,79.232 231.585,79.952 232.300 C 80.672 233.015,81.698 233.710,82.231 233.843 C 82.764 233.977,83.200 234.247,83.200 234.443 C 83.200 234.640,83.335 234.779,83.500 234.753 C 84.201 234.642,84.696 234.844,85.450 235.546 C 86.490 236.515,88.010 237.323,88.282 237.051 C 88.399 236.934,88.732 237.075,89.022 237.365 C 89.311 237.654,90.505 238.198,91.674 238.573 C 92.843 238.948,94.026 239.549,94.303 239.908 C 94.610 240.307,95.414 240.569,96.368 240.581 C 97.228 240.591,97.901 240.765,97.865 240.966 C 97.829 241.168,98.340 241.472,99.000 241.642 C 99.660 241.812,101.460 242.317,103.000 242.764 C 104.540 243.211,106.205 243.582,106.700 243.588 C 107.195 243.595,107.600 243.759,107.600 243.953 C 107.600 244.148,107.960 244.401,108.400 244.516 C 108.858 244.636,109.203 244.527,109.206 244.263 C 109.210 243.963,109.330 243.986,109.547 244.328 C 109.732 244.619,110.584 244.915,111.441 244.987 C 112.299 245.058,113.270 245.214,113.600 245.333 C 117.948 246.896,143.151 246.678,145.177 245.061 C 145.641 244.690,145.685 244.717,145.400 245.200 C 145.107 245.697,145.151 245.715,145.658 245.305 C 145.994 245.033,147.064 244.728,148.035 244.628 C 149.006 244.528,149.890 244.414,150.000 244.376 C 150.110 244.337,150.354 244.333,150.542 244.367 C 150.730 244.400,151.090 244.267,151.342 244.069 C 151.797 243.713,153.287 243.280,155.200 242.950 C 155.750 242.855,156.470 242.668,156.800 242.536 C 157.130 242.403,157.832 242.237,158.359 242.168 C 158.886 242.099,159.507 241.853,159.739 241.621 C 159.971 241.389,160.441 241.200,160.784 241.200 C 161.591 241.200,167.642 238.573,167.959 238.085 C 168.091 237.881,168.515 237.762,168.900 237.821 C 169.285 237.881,169.600 237.750,169.600 237.531 C 169.600 237.312,169.825 237.211,170.100 237.307 C 170.375 237.402,171.514 236.899,172.632 236.189 C 173.749 235.478,175.099 234.762,175.632 234.596 C 177.465 234.026,180.572 231.402,180.175 230.759 C 180.092 230.625,178.443 230.495,176.512 230.470 C 172.178 230.416,167.036 230.068,163.600 229.596 C 162.170 229.400,160.501 229.297,159.890 229.366 C 159.280 229.435,158.692 229.349,158.584 229.174 C 158.476 228.999,157.400 228.733,156.194 228.582 C 154.987 228.431,154.000 228.149,154.000 227.954 C 154.000 227.759,153.865 227.636,153.700 227.681 C 153.535 227.726,152.680 227.606,151.800 227.416 C 150.920 227.226,150.020 227.044,149.800 227.012 C 149.580 226.980,149.130 226.847,148.800 226.716 C 147.878 226.350,144.718 225.574,143.600 225.438 C 142.676 225.326,141.530 224.913,139.338 223.903 C 138.864 223.684,138.251 223.645,137.976 223.815 C 137.653 224.014,137.577 223.960,137.762 223.662 C 137.942 223.370,137.744 223.200,137.224 223.200 C 136.771 223.200,136.400 223.040,136.400 222.843 C 136.400 222.512,134.769 221.878,133.754 221.815 C 133.509 221.800,133.059 221.588,132.754 221.343 C 132.449 221.098,131.795 220.774,131.300 220.622 C 130.805 220.470,130.400 220.178,130.400 219.973 C 130.400 219.768,130.040 219.600,129.600 219.600 C 129.160 219.600,128.800 219.409,128.800 219.176 C 128.800 218.943,128.632 218.856,128.428 218.983 C 128.223 219.109,127.940 219.027,127.800 218.800 C 127.660 218.573,127.377 218.491,127.172 218.617 C 126.968 218.744,126.800 218.678,126.800 218.470 C 126.800 218.048,125.290 217.476,124.460 217.583 C 124.163 217.622,124.038 217.461,124.183 217.227 C 124.337 216.978,124.109 216.800,123.638 216.800 C 123.192 216.800,122.633 216.435,122.394 215.989 C 122.155 215.543,121.789 215.283,121.580 215.412 C 121.371 215.542,121.200 215.446,121.200 215.200 C 121.200 214.954,121.043 214.850,120.852 214.968 C 120.661 215.086,119.992 214.742,119.365 214.204 C 118.739 213.665,117.725 213.017,117.113 212.764 C 116.501 212.510,116.000 212.145,116.000 211.951 C 116.000 211.758,115.749 211.600,115.443 211.600 C 115.136 211.600,114.778 211.319,114.646 210.975 C 114.514 210.631,114.224 210.461,114.003 210.598 C 113.781 210.735,113.600 210.627,113.600 210.357 C 113.600 210.087,113.492 209.975,113.360 210.107 C 113.228 210.239,112.463 209.686,111.660 208.878 C 110.857 208.070,110.106 207.407,109.990 207.404 C 109.678 207.398,108.467 206.386,106.755 204.700 C 105.918 203.875,105.090 203.199,104.916 203.198 C 104.431 203.196,98.186 196.698,97.878 195.875 C 97.728 195.476,97.420 195.264,97.193 195.404 C 96.966 195.545,96.830 195.511,96.890 195.330 C 96.951 195.148,96.845 194.968,96.656 194.930 C 96.467 194.891,95.697 193.946,94.946 192.830 C 94.194 191.713,93.404 190.800,93.189 190.800 C 92.975 190.800,92.800 190.620,92.800 190.400 C 92.800 190.180,92.485 189.653,92.100 189.229 C 90.712 187.700,90.202 187.017,90.341 186.874 C 90.419 186.794,90.104 186.293,89.641 185.761 C 89.178 185.229,88.800 184.615,88.800 184.397 C 88.800 184.179,88.609 184.000,88.376 184.000 C 88.143 184.000,88.055 183.835,88.179 183.634 C 88.303 183.433,88.258 183.208,88.079 183.134 C 87.547 182.915,85.200 179.303,85.200 178.703 C 85.200 178.399,84.879 177.802,84.487 177.375 C 84.095 176.949,83.156 175.219,82.400 173.531 C 81.643 171.842,80.884 170.548,80.712 170.654 C 80.541 170.760,80.400 170.657,80.400 170.424 C 80.400 169.602,80.285 169.395,79.540 168.873 C 79.125 168.583,78.880 168.195,78.994 168.010 C 79.348 167.436,74.384 164.143,73.470 164.346 C 73.289 164.387,73.255 164.235,73.394 164.009 C 73.693 163.526,71.698 162.677,70.944 162.966 C 70.659 163.076,70.319 162.993,70.189 162.783 C 69.888 162.296,66.787 162.294,66.019 162.780 M330.000 162.787 C 330.000 163.001,329.723 163.069,329.385 162.939 C 329.047 162.809,328.386 163.040,327.916 163.451 C 327.447 163.863,327.205 163.957,327.380 163.660 C 327.636 163.223,327.535 163.207,326.848 163.574 C 326.382 163.824,326.000 164.202,326.000 164.414 C 326.000 164.626,325.745 164.800,325.432 164.800 C 324.509 164.800,322.416 166.144,322.175 166.892 C 322.052 167.272,321.745 167.542,321.494 167.492 C 321.242 167.441,321.028 167.640,321.018 167.932 C 321.008 168.225,320.688 168.693,320.306 168.972 C 319.925 169.251,319.725 169.592,319.863 169.730 C 320.002 169.868,319.820 170.094,319.460 170.232 C 319.099 170.371,318.904 170.645,319.026 170.842 C 319.148 171.039,319.093 171.200,318.904 171.200 C 318.596 171.200,317.366 174.035,317.552 174.314 C 317.594 174.377,317.352 174.705,317.014 175.043 C 316.676 175.381,316.400 175.914,316.400 176.229 C 316.400 176.543,316.232 176.800,316.027 176.800 C 315.822 176.800,315.527 177.205,315.371 177.700 C 315.018 178.827,312.418 182.954,311.948 183.133 C 311.757 183.207,311.600 183.439,311.600 183.650 C 311.600 184.039,310.208 186.139,309.300 187.118 C 309.025 187.414,308.800 187.914,308.800 188.229 C 308.800 188.543,308.530 188.800,308.200 188.800 C 307.870 188.800,307.645 188.944,307.700 189.119 C 307.823 189.513,305.489 192.498,303.600 194.363 C 302.830 195.123,302.234 195.858,302.275 195.996 C 302.316 196.134,301.191 197.380,299.775 198.764 C 298.359 200.148,297.200 201.443,297.200 201.640 C 297.200 201.838,296.996 202.000,296.747 202.000 C 296.498 202.000,295.971 202.372,295.577 202.826 C 295.183 203.281,294.754 203.638,294.623 203.620 C 294.493 203.602,293.831 204.221,293.152 204.994 C 292.473 205.767,291.660 206.400,291.346 206.400 C 291.032 206.400,290.672 206.669,290.546 206.998 C 290.419 207.326,290.143 207.488,289.931 207.357 C 289.719 207.227,289.449 207.492,289.330 207.947 C 289.211 208.401,288.794 208.875,288.404 208.999 C 287.779 209.197,287.171 209.629,285.317 211.193 C 285.051 211.417,284.724 211.600,284.589 211.600 C 284.336 211.600,280.756 213.971,280.400 214.374 C 280.290 214.498,279.930 214.659,279.600 214.730 C 279.270 214.802,278.940 215.027,278.867 215.230 C 278.793 215.434,278.478 215.600,278.167 215.600 C 277.855 215.600,277.600 215.768,277.600 215.973 C 277.600 216.178,277.195 216.474,276.700 216.631 C 276.205 216.787,275.368 217.198,274.840 217.543 C 274.312 217.888,273.621 218.209,273.305 218.255 C 272.989 218.302,272.355 218.668,271.896 219.070 C 271.343 219.554,271.181 219.598,271.413 219.200 C 271.606 218.870,271.174 219.095,270.452 219.700 C 269.729 220.305,268.828 220.800,268.449 220.800 C 268.070 220.800,267.576 220.984,267.351 221.209 C 267.125 221.435,266.594 221.687,266.171 221.771 C 265.008 222.001,261.036 223.622,260.804 223.961 C 260.564 224.311,252.920 226.450,251.908 226.450 C 251.527 226.451,251.116 226.612,250.995 226.808 C 250.874 227.004,250.481 227.052,250.122 226.915 C 249.688 226.748,249.565 226.820,249.755 227.127 C 249.942 227.430,249.826 227.508,249.421 227.353 C 249.079 227.222,248.800 227.272,248.800 227.464 C 248.800 227.656,248.170 227.784,247.400 227.748 C 246.630 227.712,246.000 227.820,246.000 227.988 C 246.000 228.279,244.590 228.571,241.000 229.023 C 240.120 229.134,238.031 229.404,236.359 229.623 C 232.595 230.117,229.029 230.340,223.642 230.420 C 221.058 230.458,219.695 230.615,220.042 230.834 C 220.349 231.029,220.425 231.191,220.211 231.194 C 219.997 231.197,220.415 231.742,221.141 232.405 C 221.867 233.068,222.627 233.507,222.830 233.381 C 223.034 233.256,223.207 233.388,223.215 233.676 C 223.224 233.964,224.394 234.740,225.815 235.400 C 227.237 236.060,228.400 236.735,228.400 236.900 C 228.400 237.065,228.535 237.162,228.700 237.115 C 228.865 237.068,229.381 237.242,229.847 237.501 C 230.313 237.760,230.808 237.858,230.947 237.719 C 231.086 237.580,231.200 237.677,231.200 237.933 C 231.200 238.190,231.425 238.404,231.700 238.409 C 231.975 238.414,233.010 238.801,234.000 239.271 C 234.990 239.740,235.980 240.143,236.200 240.166 C 236.420 240.190,237.158 240.513,237.840 240.884 C 238.810 241.412,239.194 241.454,239.599 241.080 C 240.003 240.706,240.057 240.708,239.842 241.088 C 239.558 241.592,241.137 242.192,242.500 242.098 C 242.885 242.071,243.200 242.196,243.200 242.374 C 243.200 242.552,243.920 242.813,244.800 242.954 C 245.680 243.094,247.255 243.504,248.300 243.863 C 250.399 244.585,251.599 244.841,253.400 244.952 C 254.060 244.993,254.783 245.140,255.008 245.280 C 256.038 245.920,264.159 246.404,271.800 246.279 C 279.673 246.151,281.361 246.050,285.400 245.462 C 286.280 245.334,287.715 245.138,288.590 245.027 C 291.165 244.698,292.420 244.355,292.221 244.034 C 292.119 243.869,292.252 243.729,292.518 243.725 C 293.525 243.707,297.818 242.699,298.200 242.391 C 298.420 242.213,298.780 242.052,299.000 242.033 C 300.458 241.907,302.000 241.456,302.000 241.155 C 302.000 240.960,302.450 240.800,303.000 240.800 C 303.550 240.800,304.000 240.662,304.000 240.493 C 304.000 240.324,305.440 239.675,307.200 239.049 C 308.960 238.424,310.400 237.741,310.400 237.533 C 310.400 237.324,310.569 237.257,310.775 237.385 C 310.982 237.512,311.314 237.326,311.513 236.970 C 311.712 236.614,312.353 236.295,312.937 236.262 C 313.521 236.228,314.000 236.077,314.000 235.926 C 314.000 235.775,314.620 235.427,315.379 235.153 C 316.137 234.879,316.666 234.507,316.555 234.327 C 316.444 234.147,316.711 234.000,317.148 234.000 C 317.585 234.000,318.213 233.730,318.543 233.400 C 318.873 233.070,319.316 232.800,319.529 232.800 C 319.741 232.800,320.019 232.528,320.146 232.196 C 320.273 231.864,320.542 231.639,320.743 231.696 C 321.116 231.802,323.876 229.964,325.243 228.700 C 325.659 228.315,326.000 228.088,326.000 228.196 C 326.000 228.373,326.920 227.686,328.145 226.594 C 328.395 226.371,329.410 225.561,330.400 224.794 C 333.238 222.597,342.225 213.498,342.958 212.082 C 343.322 211.377,343.843 210.800,344.114 210.800 C 344.591 210.800,345.710 209.377,345.502 209.034 C 345.446 208.941,345.783 208.445,346.250 207.932 C 346.718 207.420,347.312 206.590,347.570 206.089 C 347.829 205.588,348.211 205.283,348.420 205.412 C 348.629 205.542,348.800 205.299,348.800 204.873 C 348.800 204.447,349.080 203.865,349.423 203.581 C 349.766 203.296,350.290 202.480,350.588 201.767 C 350.886 201.054,351.467 200.133,351.880 199.720 C 353.044 198.556,354.482 196.056,354.226 195.641 C 354.099 195.436,354.153 195.208,354.346 195.134 C 354.539 195.060,355.064 194.234,355.513 193.298 C 355.962 192.362,356.120 191.718,355.865 191.867 C 355.609 192.016,355.760 191.716,356.200 191.200 C 356.676 190.642,356.757 190.402,356.400 190.608 C 355.920 190.885,355.890 190.838,356.251 190.377 C 356.805 189.669,356.886 184.500,356.349 184.168 C 356.113 184.022,356.164 183.683,356.481 183.299 C 356.855 182.846,356.872 182.627,356.542 182.516 C 356.291 182.431,356.177 182.010,356.289 181.581 C 356.402 181.151,356.293 180.800,356.047 180.800 C 355.801 180.800,355.600 180.583,355.600 180.318 C 355.600 179.355,353.463 175.237,353.085 175.471 C 352.871 175.603,352.774 175.477,352.870 175.191 C 353.075 174.575,348.479 170.200,347.626 170.200 C 347.435 170.200,346.676 169.652,345.939 168.983 C 345.203 168.314,343.745 167.353,342.700 166.847 C 341.655 166.342,340.800 165.784,340.800 165.608 C 340.800 165.431,340.363 165.177,339.828 165.043 C 339.293 164.909,338.560 164.503,338.198 164.140 C 337.836 163.778,337.013 163.464,336.371 163.441 C 335.728 163.418,335.201 163.246,335.201 163.057 C 335.200 162.869,334.930 162.818,334.600 162.945 C 334.270 163.071,334.000 163.001,334.000 162.787 C 334.000 162.574,333.100 162.400,332.000 162.400 C 330.900 162.400,330.000 162.574,330.000 162.787 M45.600 300.380 L 45.600 315.600 55.600 315.600 L 65.600 315.600 65.600 312.800 L 65.600 310.000 59.400 310.000 L 53.200 310.000 53.200 297.651 L 53.200 285.302 49.400 285.231 L 45.600 285.160 45.600 300.380 M177.000 287.600 C 176.600 288.920,176.111 290.000,175.913 290.000 C 175.715 290.000,175.664 290.180,175.800 290.400 C 175.936 290.620,175.836 290.800,175.577 290.800 C 175.293 290.800,175.181 291.190,175.296 291.788 C 175.399 292.331,175.344 292.689,175.172 292.583 C 174.874 292.398,173.776 296.482,173.974 297.042 C 174.026 297.190,173.884 297.425,173.659 297.564 C 173.433 297.703,173.167 298.268,173.067 298.819 C 172.967 299.370,172.611 300.477,172.277 301.278 C 171.942 302.079,171.762 302.829,171.878 302.944 C 171.993 303.060,171.696 303.703,171.218 304.374 C 170.740 305.045,170.461 305.776,170.598 305.997 C 170.735 306.219,170.657 306.400,170.424 306.400 C 170.191 306.400,170.021 306.535,170.047 306.700 C 170.073 306.865,170.060 307.090,170.017 307.200 C 169.932 307.419,169.909 307.502,168.975 311.000 C 168.623 312.320,168.124 313.580,167.867 313.800 C 166.254 315.181,167.056 315.643,170.947 315.570 C 174.675 315.501,174.743 315.482,175.000 314.456 C 175.144 313.882,175.696 312.465,176.226 311.306 L 177.189 309.200 182.163 309.200 L 187.136 309.200 187.400 310.400 C 187.545 311.060,187.809 311.600,187.987 311.600 C 188.165 311.600,188.429 312.230,188.574 313.000 C 188.718 313.770,189.002 314.400,189.206 314.400 C 189.409 314.400,189.471 314.670,189.345 315.000 C 189.150 315.507,189.698 315.600,192.891 315.600 C 197.136 315.600,197.466 315.465,196.567 314.094 C 195.945 313.145,195.207 311.025,193.819 306.200 C 193.439 304.880,192.887 303.267,192.593 302.616 C 192.298 301.965,192.162 301.262,192.290 301.054 C 192.418 300.846,192.335 300.793,192.104 300.935 C 191.867 301.082,191.571 300.718,191.423 300.097 C 190.785 297.434,189.099 292.385,188.783 292.189 C 188.591 292.071,188.536 291.710,188.660 291.387 C 188.784 291.064,188.686 290.800,188.443 290.800 C 188.199 290.800,188.000 290.470,188.000 290.067 C 188.000 289.663,187.865 289.198,187.700 289.033 C 187.535 288.868,187.378 288.568,187.350 288.367 C 187.322 288.165,187.264 287.955,187.219 287.900 C 187.175 287.845,187.072 287.443,186.991 287.007 C 186.910 286.571,186.653 286.151,186.419 286.073 C 186.186 285.995,186.097 285.767,186.221 285.566 C 186.352 285.353,184.620 285.200,182.087 285.200 L 177.727 285.200 177.000 287.600 M261.600 290.267 C 261.600 295.127,261.583 295.219,260.789 294.794 C 260.343 294.555,260.070 294.210,260.184 294.026 C 260.381 293.707,259.256 293.153,257.272 292.591 C 255.701 292.146,251.589 292.811,250.756 293.644 C 250.340 294.060,250.000 294.276,250.000 294.125 C 250.000 293.973,249.640 294.236,249.200 294.708 C 248.760 295.180,248.400 295.672,248.400 295.800 C 248.400 295.928,248.031 296.430,247.579 296.915 C 247.127 297.399,246.841 298.112,246.942 298.499 C 247.043 298.885,246.974 299.107,246.788 298.993 C 245.910 298.450,245.759 308.503,246.636 309.137 C 246.836 309.282,247.064 309.850,247.141 310.400 C 247.219 310.950,247.489 311.532,247.741 311.694 C 247.994 311.856,248.056 311.991,247.881 311.994 C 247.239 312.006,250.276 314.773,251.421 315.218 C 253.078 315.863,256.792 316.337,257.040 315.935 C 257.154 315.751,257.571 315.600,257.968 315.600 C 258.364 315.600,259.343 315.155,260.144 314.612 L 261.600 313.624 261.600 314.612 C 261.600 315.589,261.638 315.600,265.200 315.600 C 267.333 315.600,268.800 315.437,268.800 315.200 C 268.800 314.980,268.620 314.800,268.400 314.800 C 268.141 314.800,268.000 309.733,268.000 300.400 C 268.000 291.067,268.141 286.000,268.400 286.000 C 268.620 286.000,268.800 285.811,268.800 285.580 C 268.800 285.312,267.495 285.186,265.200 285.232 L 261.600 285.305 261.600 290.267 M95.933 290.100 L 96.066 292.800 94.733 292.847 C 94.000 292.873,93.265 292.873,93.100 292.847 C 92.935 292.821,92.800 293.861,92.800 295.157 C 92.800 297.673,93.061 298.000,95.064 298.000 L 96.062 298.000 95.961 304.575 C 95.891 309.129,96.004 311.322,96.327 311.712 C 96.583 312.021,96.675 312.392,96.530 312.537 C 96.385 312.682,96.477 312.800,96.733 312.800 C 96.990 312.800,97.200 313.036,97.200 313.325 C 97.200 314.233,99.327 315.469,101.403 315.766 C 102.501 315.923,103.895 316.133,104.500 316.231 C 105.105 316.330,105.600 316.229,105.600 316.006 C 105.600 315.783,105.980 315.600,106.445 315.600 C 107.226 315.600,107.270 315.454,107.017 313.700 C 106.489 310.040,106.429 309.930,105.135 310.214 C 103.002 310.683,102.800 310.125,102.800 303.751 L 102.800 298.000 104.800 298.000 L 106.800 298.000 106.800 295.400 L 106.800 292.800 104.800 292.800 L 102.800 292.800 102.799 290.100 L 102.798 287.400 99.299 287.400 L 95.800 287.400 95.933 290.100 M76.200 292.832 C 75.540 293.054,74.640 293.313,74.200 293.409 C 73.760 293.505,73.126 293.916,72.792 294.322 C 72.458 294.729,71.963 294.988,71.692 294.897 C 71.422 294.807,71.081 295.063,70.935 295.467 C 70.789 295.870,70.366 296.650,69.996 297.200 C 67.893 300.319,67.915 308.869,70.030 311.140 C 70.463 311.605,70.801 312.033,70.783 312.092 C 70.668 312.453,71.352 313.600,71.681 313.600 C 71.899 313.600,72.596 313.970,73.230 314.421 C 73.864 314.873,74.762 315.316,75.224 315.405 C 75.686 315.494,76.455 315.693,76.932 315.848 C 78.260 316.279,82.056 316.157,83.400 315.640 C 84.060 315.386,85.074 314.990,85.654 314.760 C 86.718 314.337,89.590 311.340,89.641 310.600 C 89.656 310.380,89.878 309.948,90.134 309.639 C 91.010 308.585,90.843 298.479,89.959 299.025 C 89.767 299.144,89.699 299.007,89.810 298.719 C 90.059 298.069,87.076 294.390,85.706 293.659 C 83.857 292.672,78.150 292.176,76.200 292.832 M141.238 292.981 C 140.270 293.295,139.370 293.698,139.238 293.876 C 139.107 294.054,138.640 294.393,138.200 294.630 C 137.760 294.866,137.110 295.627,136.756 296.319 C 136.402 297.012,136.007 297.474,135.879 297.346 C 135.292 296.759,135.777 302.180,136.369 302.828 C 136.716 303.208,137.423 303.987,137.941 304.558 C 138.458 305.129,139.043 305.497,139.241 305.375 C 139.438 305.253,139.600 305.364,139.600 305.623 C 139.600 305.907,139.990 306.019,140.586 305.905 C 141.128 305.801,141.625 305.875,141.690 306.070 C 141.755 306.264,143.066 306.617,144.604 306.855 C 149.786 307.656,150.795 310.694,145.926 310.840 C 144.680 310.877,144.661 310.899,145.600 311.200 C 146.150 311.376,146.313 311.538,145.961 311.560 C 144.869 311.628,142.764 310.359,142.307 309.357 C 141.620 307.847,134.716 308.124,135.009 309.649 C 135.200 310.638,136.488 312.800,136.886 312.800 C 137.059 312.800,137.200 313.081,137.200 313.424 C 137.200 313.767,137.361 313.948,137.558 313.826 C 137.755 313.704,138.017 313.866,138.139 314.186 C 138.786 315.871,147.312 316.809,150.081 315.500 C 150.895 315.115,151.806 314.800,152.106 314.800 C 152.742 314.800,154.913 312.646,154.596 312.329 C 154.478 312.211,154.655 311.886,154.990 311.608 C 156.087 310.697,155.815 306.316,154.568 304.835 C 152.968 302.933,145.814 300.526,144.385 301.409 C 144.173 301.540,144.000 301.457,144.000 301.224 C 144.000 300.991,143.751 300.800,143.447 300.800 C 142.651 300.800,142.387 298.909,143.100 298.317 C 144.709 296.982,150.248 298.540,149.346 300.073 C 149.144 300.418,151.107 300.226,151.467 299.866 C 151.614 299.720,152.524 299.600,153.491 299.600 C 155.200 299.600,155.243 299.569,155.068 298.455 C 154.808 296.806,152.000 292.537,152.000 293.791 C 152.000 293.916,151.576 293.740,151.057 293.401 C 149.696 292.509,143.512 292.245,141.238 292.981 M205.506 292.797 C 203.090 293.527,199.615 296.216,199.426 297.502 C 199.381 297.811,199.142 298.188,198.896 298.341 C 197.868 298.976,197.278 305.231,198.035 307.460 C 198.537 308.938,198.603 309.204,198.739 310.284 C 198.773 310.550,199.293 311.225,199.896 311.784 C 200.499 312.343,200.814 312.801,200.596 312.802 C 199.787 312.805,203.859 315.226,205.400 315.658 C 207.284 316.186,210.823 316.190,212.800 315.667 C 214.630 315.182,216.457 314.191,216.127 313.861 C 215.984 313.717,216.162 313.600,216.523 313.600 C 217.205 313.600,218.400 311.702,218.400 310.620 C 218.400 310.279,218.580 310.000,218.800 310.000 C 219.242 310.000,219.338 308.425,218.957 307.433 C 218.616 306.545,212.800 306.496,212.800 307.381 C 212.800 308.499,211.865 310.000,211.169 310.000 C 210.783 310.000,210.407 310.169,210.333 310.375 C 209.879 311.655,206.513 309.934,205.624 307.968 C 204.842 306.237,204.175 302.042,204.778 302.645 C 204.898 302.764,205.185 302.085,205.416 301.135 C 206.341 297.335,211.794 296.732,212.587 300.341 C 212.837 301.478,212.867 301.489,216.020 301.565 L 219.200 301.642 219.200 300.378 C 219.200 297.607,216.026 293.267,214.245 293.602 C 214.049 293.638,213.754 293.449,213.588 293.180 C 213.226 292.595,207.131 292.307,205.506 292.797 M228.108 293.123 C 226.447 293.717,222.542 296.800,223.450 296.800 C 223.557 296.800,223.365 297.200,223.023 297.689 C 221.976 299.184,222.232 299.600,224.200 299.600 C 225.190 299.600,226.000 299.735,226.000 299.900 C 226.001 300.065,226.710 300.214,227.578 300.231 C 228.445 300.249,229.120 300.155,229.077 300.024 C 228.925 299.553,230.617 297.739,231.067 297.889 C 231.320 297.973,231.633 297.870,231.764 297.659 C 232.100 297.115,233.641 297.567,234.690 298.516 C 235.586 299.326,235.798 301.016,235.018 301.126 C 226.408 302.341,224.748 302.803,224.007 304.188 C 223.720 304.723,223.311 305.125,223.099 305.081 C 221.637 304.775,221.370 311.478,222.784 312.983 C 223.237 313.465,223.516 313.981,223.404 314.130 C 223.292 314.278,223.314 314.316,223.454 314.213 C 223.593 314.110,224.157 314.380,224.708 314.813 C 225.258 315.246,225.954 315.600,226.254 315.600 C 226.554 315.600,226.800 315.760,226.800 315.956 C 226.800 316.376,231.419 316.315,231.843 315.890 C 232.003 315.730,232.457 315.600,232.853 315.600 C 233.249 315.600,234.119 315.066,234.786 314.413 L 236.000 313.227 236.000 314.413 L 236.000 315.600 239.211 315.600 L 242.422 315.600 242.385 306.452 C 242.354 298.656,242.251 297.164,241.691 296.352 C 240.660 294.860,240.235 294.522,239.641 294.720 C 239.301 294.833,239.198 294.726,239.373 294.444 C 240.340 292.879,231.639 291.858,228.108 293.123 M280.100 292.695 C 279.385 292.781,278.800 292.997,278.800 293.175 C 278.800 293.354,278.303 293.599,277.696 293.721 C 275.190 294.222,273.208 297.200,272.520 301.500 C 272.406 302.215,272.184 302.800,272.026 302.800 C 271.869 302.800,271.753 303.429,271.770 304.199 C 271.786 304.968,271.935 305.598,272.100 305.599 C 272.265 305.599,272.400 306.320,272.400 307.200 C 272.400 308.080,272.591 308.800,272.824 308.800 C 273.057 308.800,273.152 308.953,273.037 309.141 C 272.253 310.408,276.681 314.956,279.185 315.457 C 279.853 315.591,280.400 315.813,280.400 315.950 C 280.401 316.259,285.972 316.206,286.800 315.890 C 287.130 315.764,288.077 315.453,288.904 315.198 C 289.731 314.944,290.305 314.570,290.180 314.368 C 290.055 314.165,290.188 314.000,290.476 314.000 C 291.799 313.998,294.737 309.804,293.960 309.026 C 293.584 308.651,287.073 308.271,287.285 308.637 C 288.066 309.989,283.988 311.264,281.783 310.357 C 281.132 310.090,280.482 309.894,280.338 309.923 C 280.065 309.977,278.800 307.073,278.800 306.392 C 278.800 306.149,281.772 306.000,286.593 306.000 L 294.386 306.000 294.161 303.300 C 293.888 300.020,293.304 297.600,292.785 297.600 C 292.573 297.600,292.400 297.420,292.400 297.200 C 292.400 296.734,289.219 293.375,288.850 293.452 C 288.712 293.481,288.150 293.322,287.600 293.100 C 286.534 292.669,282.254 292.438,280.100 292.695 M307.900 292.669 C 307.295 292.770,306.800 293.032,306.800 293.250 C 306.800 293.469,306.640 293.549,306.445 293.428 C 306.105 293.218,305.105 294.101,305.303 294.437 C 305.357 294.527,305.319 294.549,305.221 294.487 C 305.122 294.426,304.797 294.786,304.498 295.287 C 303.994 296.134,303.968 296.075,304.141 294.484 L 304.328 292.769 301.064 292.884 L 297.800 293.000 297.694 304.300 L 297.588 315.600 301.194 315.600 C 303.331 315.600,304.800 315.437,304.800 315.200 C 304.800 314.980,304.620 314.800,304.400 314.800 C 303.605 314.800,303.891 301.571,304.700 300.957 C 305.128 300.632,305.205 300.420,304.900 300.413 C 304.182 300.394,305.816 298.850,307.050 298.381 C 308.044 298.003,310.827 298.877,310.740 299.539 C 310.721 299.683,310.727 303.355,310.753 307.700 L 310.800 315.600 314.200 315.600 L 317.600 315.600 317.661 308.300 C 317.726 300.494,317.722 300.556,318.178 299.508 C 318.528 298.705,320.949 297.929,321.929 298.305 C 322.710 298.605,324.587 300.400,324.118 300.400 C 323.943 300.399,323.853 303.819,323.917 308.000 L 324.033 315.600 327.443 315.600 L 330.853 315.600 330.727 306.185 C 330.628 298.870,330.481 296.696,330.066 296.440 C 329.772 296.259,329.525 295.951,329.516 295.755 C 329.482 294.981,328.889 293.802,328.554 293.844 C 328.359 293.868,327.774 293.608,327.253 293.267 C 325.466 292.096,318.800 292.523,318.800 293.808 C 318.800 294.133,318.595 294.400,318.344 294.400 C 318.093 294.400,317.684 294.680,317.434 295.022 C 316.910 295.737,315.600 295.413,315.600 294.567 C 315.600 293.295,310.975 292.155,307.900 292.669 M110.465 301.700 C 110.582 309.380,110.696 310.741,111.301 311.632 C 111.687 312.199,111.882 312.784,111.735 312.932 C 111.587 313.079,111.685 313.200,111.952 313.200 C 112.220 313.200,112.862 313.657,113.379 314.215 C 113.897 314.774,114.743 315.311,115.260 315.410 C 115.777 315.509,116.703 315.797,117.318 316.051 C 118.157 316.397,118.686 316.398,119.437 316.056 C 119.987 315.805,120.762 315.600,121.159 315.600 C 121.555 315.600,122.627 315.059,123.540 314.397 L 125.200 313.195 125.200 314.397 L 125.200 315.600 128.400 315.600 L 131.600 315.600 131.600 304.200 L 131.600 292.800 128.200 292.800 L 124.800 292.800 124.800 300.216 C 124.800 308.851,124.425 310.005,121.625 309.995 C 117.833 309.980,117.600 309.399,117.600 299.940 L 117.600 292.800 113.965 292.800 L 110.331 292.800 110.465 301.700 M332.929 293.440 C 332.794 293.793,332.845 294.198,333.042 294.340 C 333.413 294.610,333.626 295.289,333.717 296.496 C 333.746 296.883,333.912 297.200,334.085 297.200 C 334.258 297.200,334.379 297.335,334.353 297.500 C 334.327 297.665,334.341 297.890,334.386 298.000 C 334.430 298.110,334.551 298.723,334.655 299.363 C 334.759 300.002,335.097 301.014,335.406 301.612 C 335.715 302.210,335.855 302.811,335.717 302.949 C 335.579 303.087,335.656 303.200,335.887 303.200 C 336.118 303.200,336.438 303.605,336.600 304.100 C 336.761 304.595,336.926 305.090,336.967 305.200 C 337.007 305.310,337.350 306.480,337.728 307.800 C 338.106 309.120,338.592 310.513,338.808 310.895 C 339.024 311.277,339.200 312.042,339.200 312.595 C 339.200 313.148,339.368 313.600,339.573 313.600 C 339.915 313.600,340.424 314.693,340.638 315.883 C 340.850 317.068,338.835 318.464,337.091 318.339 C 335.819 318.248,335.394 318.364,335.376 318.809 C 335.363 319.134,335.217 319.803,335.050 320.297 C 334.014 323.372,334.673 324.075,338.600 324.085 C 342.458 324.095,345.835 321.980,346.797 318.952 C 347.067 318.098,347.558 316.973,347.886 316.451 C 348.260 315.857,348.300 315.615,347.993 315.804 C 347.724 315.971,347.975 315.302,348.551 314.319 C 349.127 313.336,349.483 312.417,349.342 312.276 C 349.201 312.135,349.285 311.780,349.528 311.487 C 349.771 311.194,350.244 309.902,350.579 308.616 C 350.914 307.330,351.479 305.833,351.836 305.290 C 352.192 304.746,352.284 304.424,352.041 304.574 C 351.799 304.724,351.600 304.676,351.600 304.466 C 351.600 304.257,351.889 303.975,352.242 303.839 C 352.608 303.699,352.785 303.337,352.654 302.997 C 352.528 302.668,352.629 302.400,352.879 302.400 C 353.129 302.400,353.223 302.290,353.088 302.155 C 352.871 301.937,353.080 301.212,354.226 298.200 C 354.394 297.760,354.569 297.265,354.615 297.100 C 354.662 296.935,354.745 296.710,354.800 296.600 C 354.855 296.490,354.937 296.265,354.983 296.100 C 355.551 294.035,355.753 293.599,356.143 293.594 C 356.395 293.591,356.330 293.413,356.000 293.200 C 355.670 292.987,353.936 292.809,352.147 292.806 L 348.895 292.800 348.219 294.700 C 347.847 295.745,347.481 296.960,347.405 297.400 C 347.329 297.840,347.229 298.245,347.183 298.300 C 347.138 298.355,347.062 298.535,347.015 298.700 C 346.969 298.865,346.817 299.270,346.677 299.600 C 346.537 299.930,346.336 300.650,346.229 301.200 C 344.930 307.875,344.243 308.662,343.106 304.777 C 342.691 303.359,342.298 302.020,342.232 301.800 C 342.166 301.580,341.974 300.638,341.806 299.707 C 341.638 298.776,341.369 298.096,341.208 298.195 C 341.047 298.295,341.001 297.931,341.104 297.388 C 341.208 296.845,341.137 296.399,340.947 296.398 C 340.756 296.397,340.566 295.740,340.524 294.937 C 340.425 293.029,339.996 292.813,336.287 292.806 C 333.799 292.801,333.126 292.928,332.929 293.440 M182.608 294.387 C 182.356 294.795,183.628 298.908,184.109 299.241 C 184.301 299.374,184.603 300.094,184.779 300.841 C 184.956 301.589,185.168 302.470,185.251 302.800 C 185.373 303.291,184.792 303.421,182.065 303.517 L 178.729 303.633 179.003 302.317 C 179.154 301.593,179.527 300.483,179.832 299.851 C 180.137 299.220,180.289 298.545,180.170 298.351 C 180.051 298.158,180.124 298.000,180.333 298.000 C 180.542 298.000,180.829 297.505,180.970 296.900 C 181.422 294.969,182.082 293.603,182.453 293.833 C 182.651 293.955,182.721 294.204,182.608 294.387 M81.800 298.648 C 83.706 300.669,83.856 301.033,83.888 303.722 C 83.905 305.196,83.758 306.503,83.560 306.625 C 83.362 306.747,83.200 307.205,83.200 307.642 C 83.200 309.029,81.430 310.400,79.638 310.400 C 77.915 310.400,75.606 308.525,75.602 307.124 C 75.601 306.752,75.452 306.356,75.271 306.244 C 75.090 306.132,75.075 304.910,75.238 303.529 C 75.401 302.148,75.446 300.874,75.337 300.699 C 75.229 300.524,75.371 300.430,75.652 300.490 C 75.933 300.551,76.172 300.382,76.182 300.116 C 76.251 298.288,80.430 297.195,81.800 298.648 M285.651 298.302 C 286.651 298.722,287.804 300.863,287.301 301.366 C 287.172 301.495,285.216 301.600,282.954 301.600 L 278.842 301.600 279.230 300.500 C 280.028 298.236,283.038 297.206,285.651 298.302 M259.058 298.601 C 259.588 298.949,260.243 299.107,260.511 298.952 C 260.780 298.798,260.880 298.805,260.734 298.968 C 260.588 299.132,260.723 299.875,261.034 300.620 C 262.233 303.489,261.346 309.600,259.731 309.600 C 259.396 309.600,259.273 309.794,259.438 310.062 C 259.619 310.354,259.548 310.415,259.244 310.227 C 258.981 310.064,258.548 310.093,258.282 310.290 C 257.709 310.717,257.366 310.685,255.870 310.065 C 254.807 309.625,253.267 308.400,253.777 308.400 C 253.905 308.400,253.763 307.807,253.460 307.083 C 251.458 302.290,255.451 296.238,259.058 298.601 M235.545 307.566 C 235.449 310.280,232.375 312.124,229.977 310.906 C 227.112 309.450,228.822 306.613,232.795 306.231 C 233.713 306.142,234.569 305.964,234.698 305.835 C 235.328 305.205,235.608 305.778,235.545 307.566 " stroke="none" fill="#04a6e1" fill-rule="evenodd"></path></g></svg>